<svg xmlns="http://www.w3.org/2000/svg" viewBox="0 0 600 600">
  <title>off_state_1</title>
  <g id="Layer_2" data-name="Layer 2">
    <g id="Layer_1-2" data-name="Layer 1">
      <g id="Group">
        <rect width="600" height="600"/>
        <g id="rightPhone">
          <g id="cable">
            <path d="M431.2,378.6h0a5.23,5.23,0,0,1-5.2-5.2v-8a5.23,5.23,0,0,1,5.2-5.2h0a5.23,5.23,0,0,1,5.2,5.2v8A5.23,5.23,0,0,1,431.2,378.6Z" fill="#fbcccc" stroke="#fbcccc" stroke-miterlimit="10"/>
            <line x1="431.2" y1="506.4" x2="431.2" y2="369.4" fill="none" stroke="#fbcccc" stroke-miterlimit="10" stroke-width="4"/>
          </g>
          <g id="rightPhone-2">
            <path d="M368.9,407.4a67.5,67.5,0,0,0,0-135Z" fill="#959a8f"/>
            <path d="M333.5,398V283.2a28.05,28.05,0,0,1,14-24.21,28.05,28.05,0,0,1,14,24.21V398a28.05,28.05,0,0,1-14,24.21A28.05,28.05,0,0,1,333.5,398Z" fill="#959a8f"/>
          </g>
          <path id="phoneLight2" d="M331.12,422a23.75,23.75,0,0,0,6-.78,32.09,32.09,0,0,1-10-23.22V283.2a32.09,32.09,0,0,1,10-23.22,23.75,23.75,0,0,0-6-.78,24,24,0,0,0-24,24V398A24,24,0,0,0,331.12,422Z" fill="#fcd6d6"/>
        </g>
        <g id="leftPhone">
          <path id="phoneLight1" d="M269.16,422a23.75,23.75,0,0,1-6-.78,32.09,32.09,0,0,0,10-23.22V283.2a32.09,32.09,0,0,0-10-23.22,23.75,23.75,0,0,1,6-.78,24,24,0,0,1,24,24V398A24,24,0,0,1,269.16,422Z" fill="#fcd6d6"/>
          <g id="leftPhone-2">
            <path d="M231.1,407.4a67.5,67.5,0,1,1,0-135Z" fill="#959a8f"/>
            <path d="M266.5,398V283.2a28.05,28.05,0,0,0-14-24.21,28.05,28.05,0,0,0-14,24.21V398a28.05,28.05,0,0,0,14,24.21A28.05,28.05,0,0,0,266.5,398Z" fill="#959a8f"/>
          </g>
        </g>
        <path id="strap" d="M169.78,276.72a135.15,135.15,0,0,1-2.37-24.85c0-73,59.49-132.53,132.53-132.53s132.53,59.49,132.53,132.53a135.15,135.15,0,0,1-2.37,24.85,75.86,75.86,0,0,1,16.46,22.48A153,153,0,0,0,454,251.87c0-85-69.06-154-154-154s-154,69.06-154,154a153.48,153.48,0,0,0,7.42,47.33A75.86,75.86,0,0,1,169.78,276.72Z" fill="#959a8f"/>
      </g>
      <rect id="cableClickArea" x="415.7" y="350.27" width="31" height="164.4" opacity="0"/>
    </g>
  </g>
</svg>
